<svg xmlns="http://www.w3.org/2000/svg" viewBox="0 0 200 130" fill="none">
  <defs>
    <linearGradient id="landTopB" x1="100" x2="100" y1="20" y2="92" gradientUnits="userSpaceOnUse">
      <stop offset="0" stop-color="#9FD56A"/>
      <stop offset="1" stop-color="#70AE46"/>
    </linearGradient>
    <linearGradient id="soilFrontB" x1="100" x2="100" y1="84" y2="122" gradientUnits="userSpaceOnUse">
      <stop offset="0" stop-color="#96663C"/>
      <stop offset="1" stop-color="#6A4527"/>
    </linearGradient>
    <linearGradient id="baseStone" x1="100" x2="100" y1="54" y2="84" gradientUnits="userSpaceOnUse">
      <stop offset="0" stop-color="#DCE4EA"/>
      <stop offset="1" stop-color="#AEBBC7"/>
    </linearGradient>
  </defs>
  <path d="M100 14 184 52 100 90 16 52 100 14Z" fill="url(#landTopB)" stroke="#496A38" stroke-width="3" stroke-linejoin="round"/>
  <path d="M16 52V70L100 108V90L16 52Z" fill="#76502E"/>
  <path d="M184 52V70L100 108V90L184 52Z" fill="url(#soilFrontB)"/>
  <path d="M55 70 100 49 145 70 100 91 55 70Z" fill="url(#baseStone)" stroke="#6E7D89" stroke-width="2.4" stroke-linejoin="round"/>
  <path d="M67 70 100 55 133 70 100 85 67 70Z" fill="#EDF3F8" opacity=".95"/>
  <path d="M80 64h40M74 73h52M80 81h40" stroke="#8B9CAB" stroke-width="2" stroke-linecap="round" opacity=".92"/>
  <circle cx="58" cy="81" r="3.2" fill="#D6D3D1"/>
  <circle cx="72" cy="86" r="2.6" fill="#A8A29E"/>
  <ellipse cx="100" cy="112" rx="74" ry="9" fill="#000" opacity=".14"/>
</svg>
